<svg width="1024" height="1024" viewBox="0 0 24 24" fill="none" xmlns="http://www.w3.org/2000/svg">
  <!-- IrisNotes App Icon - Main colorful variant -->
  <!-- Three iris petals arranged in a fan -->
  
  <!-- Background circle (optional, for better visibility) -->
  <circle cx="12" cy="12" r="11" fill="#1a1a2e"/>
  
  <!-- Center petal -->
  <path
    d="M12 2C12 2 14 6 14 10C14 14 12 18 12 18C12 18 10 14 10 10C10 6 12 2 12 2Z"
    fill="#7B68EE"
    opacity="0.95"
  />
  <!-- Left petal -->
  <path
    d="M6 5C6 5 10 7 12 10C14 13 14 18 14 18C14 18 10 14 8 11C6 8 6 5 6 5Z"
    fill="#8E6DB8"
    opacity="0.85"
  />
  <!-- Right petal -->
  <path
    d="M18 5C18 5 14 7 12 10C10 13 10 18 10 18C10 18 14 14 16 11C18 8 18 5 18 5Z"
    fill="#8E6DB8"
    opacity="0.85"
  />
  <!-- Stem -->
  <path
    d="M12 16V21"
    stroke="#3D5A47"
    stroke-width="1.5"
    stroke-linecap="round"
  />
  <!-- Small leaves -->
  <path
    d="M12 18.5C10.5 17.5 9.5 17 9.5 17"
    stroke="#3D5A47"
    stroke-width="1"
    stroke-linecap="round"
  />
  <path
    d="M12 19.5C13.5 18.5 14.5 18 14.5 18"
    stroke="#3D5A47"
    stroke-width="1"
    stroke-linecap="round"
  />
</svg>
