<svg xmlns="http://www.w3.org/2000/svg" viewBox="0 0 63.04 66.88">
  <path d="M42.212.102 42.24 0h2.88l.06.115q.062.115.17.132.108.016.277.031a2.8 2.8 0 0 1 .549.1.6.6 0 0 1 .218.097q.08.06.2.089.122.03.258.083a.55.55 0 0 1 .216.144q.08.09.171.124.093.034.236.097.143.062.215.096.072.033.182.105a27 27 0 0 0 .46.292q.063.039.14.104a5 5 0 0 1 .272.247q.059.059.168.182.11.124.188.215.077.09.151.165l.152.151q.078.076.135.118t.207.181.18.219.072.182q.045.104.097.238.053.135.11.26.056.125.098.187l.104.148q.06.087.103.204t.127.264q.085.147.141.283a.8.8 0 0 1 .06.19l.016.223q.012.17.02.348l.021.595q.005.162.062.228.06.066.11.197.051.133.09.287.037.154.084.292.046.138.104.216t.083.175a8 8 0 0 0 .073.25q.045.151.097.285a.8.8 0 0 0 .111.206q.06.075.147.172.087.098.148.145.06.046.173.114a1.2 1.2 0 0 0 .228.108q.115.04.222.087a.5.5 0 0 1 .193.157q.086.11.147.17.06.06.16.135.101.075.187.119.088.042.255.126.166.084.22.12a1 1 0 0 1 .126.114q.073.076.154.163.08.088.175.177.094.09.187.19a1 1 0 0 1 .219.373q.03.093.058.198t.116.174.153.2.131.249q.066.12.13.186t.073.213.021.277q.013.132.02.31.01.178.032.33.023.153.044.275.022.12.075.218a.9.9 0 0 1 .084.244q.03.148.036.244.006.097.027.286t.024.346a40 40 0 0 1 .007.635v.96a14 14 0 0 1-.012.624 1.73 1.73 0 0 1-.102.485q-.018.042-.06.186-.043.145-.072.28a1 1 0 0 1-.127.295 4 4 0 0 0-.144.256.5.5 0 0 0-.05.139q-.003.043-.034.264a8 8 0 0 1-.052.34.34.34 0 0 1-.11.198q-.09.08-.183.142l-.2.128a.8.8 0 0 0-.182.154q-.075.087-.151.17l-.13.138a4 4 0 0 1-.175.169 10 10 0 0 0-.205.194q-.083.084-.134.156a2 2 0 0 1-.116.15q-.065.078-.146.17a1 1 0 0 1-.194.168 1 1 0 0 1-.228.114l-.216.07a.7.7 0 0 0-.226.125.7.7 0 0 1-.19.114 1 1 0 0 1-.202.037q-.133.017-.2.155a.25.25 0 0 1-.208.154 1 1 0 0 0-.247.056.4.4 0 0 0-.174.116.4.4 0 0 1-.196.11.7.7 0 0 0-.223.102l-.165.121a.6.6 0 0 1-.233.087 1 1 0 0 0-.263.09q-.098.055-.193.1t-.254.086q-.158.04-.285.068a1.6 1.6 0 0 0-.24.071.4.4 0 0 0-.187.154.26.26 0 0 1-.196.122 2 2 0 0 0-.252.04 6 6 0 0 1-.269.05.6.6 0 0 0-.251.105.5.5 0 0 1-.233.1q-.12.017-.235.053a13 13 0 0 0-.425.144 2 2 0 0 1-.252.055l-.319.056a13 13 0 0 0-.595.117q-.165.037-.225.162-.06.124-.165.13-.104.003-.29.005a.5.5 0 0 0-.273.057.8.8 0 0 1-.188.09 1.4 1.4 0 0 1-.216.052l-.264.038a4 4 0 0 0-.59.125 1 1 0 0 0-.217.1.7.7 0 0 1-.211.09q-.099.024-.252.04a1 1 0 0 0-.286.073 2 2 0 0 0-.202.096q-.068.042-.193.094a2 2 0 0 0-.252.13 1.5 1.5 0 0 1-.206.11l-.213.091q-.136.06-.237.122a3 3 0 0 0-.181.122 1.3 1.3 0 0 0-.158.136 3 3 0 0 0-.14.148.4.4 0 0 1-.182.108q-.12.038-.257.088-.136.051-.25.108a2 2 0 0 1-.208.091 5 5 0 0 0-.204.078.4.4 0 0 0-.17.124 1 1 0 0 1-.153.154q-.09.075-.121.223-.032.15.142.162t.282.017q.11.006.27-.001.162-.008.343-.009.18-.002.33-.02l.275-.035a.25.25 0 0 0 .187-.106q.062-.09.21-.112.147-.023.312-.024l.277.001q.111.002.256.072a1.5 1.5 0 0 0 .467.146q.127.022.256.032t.282.017a21 21 0 0 0 .671.017h.963q.165.002.28.038a.7.7 0 0 1 .203.099.6.6 0 0 0 .202.093q.117.03.289.072a.9.9 0 0 1 .235.08l.126.085q.064.045.255.097.19.053.341.091.15.039.268.084t.207.068a7 7 0 0 0 .496.106q.154.024.262.062a.6.6 0 0 1 .188.1q.078.065.177.115.1.051.251.122.153.07.242.101.09.03.218.066.129.036.274.07a.7.7 0 0 1 .221.083q.076.05.177.106a.8.8 0 0 0 .228.084q.127.028.275.052l.347.058q.198.034.258.06l.16.066q.101.04.248.071.148.032.317.053.17.02.3.03.133.01.28.014a2.7 2.7 0 0 0 .664-.074q.106-.035.162-.057t.173-.063.292-.07.301-.093a.54.54 0 0 0 .191-.152.26.26 0 0 1 .174-.105q.109-.017.248-.06a.43.43 0 0 0 .214-.138.8.8 0 0 1 .157-.15.43.43 0 0 0 .139-.183q.057-.127.1-.235l.072-.188q.031-.08.067-.187.036-.106.106-.265t.138-.204a.7.7 0 0 0 .159-.176.53.53 0 0 1 .226-.189 5 5 0 0 0 .36-.167.7.7 0 0 1 .228-.04q.166-.012.281.014t.218.11a.5.5 0 0 0 .218.107q.115.023.222.05.106.027.205.12.099.092.164.157a.7.7 0 0 0 .148.113l.161.093a5 5 0 0 1 .428.287q.053.043.134.118.08.075.23.188.146.113.219.174a1 1 0 0 1 .133.14q.061.079.103.128.042.048.1.17.06.122.16.188.1.068.2.152.1.086.201.188t.156.154a8 8 0 0 1 .316.323q.051.056.168.165.117.111.18.18t.1.132.094.19q.057.128.114.245a.7.7 0 0 0 .151.204q.094.087.187.178.092.09.142.197a1 1 0 0 1 .072.182l.07.236q.05.158.155.202.105.042.171.164a1.6 1.6 0 0 1 .161.398l.066.234q.047.162.08.314.031.15.074.245.043.094.105.202a1 1 0 0 1 .099.252q.036.144.077.275.04.132.077.213.036.08.139.154l.102.074v4.48l-.05.04q-.052.041-.1.18a3 3 0 0 1-.102.255q-.054.115-.094.216l-.086.218a2 2 0 0 1-.107.231q-.06.116-.1.204l-.086.201a4 4 0 0 0-.106.28 3 3 0 0 1-.109.28.37.37 0 0 1-.138.166.35.35 0 0 0-.135.178 1.6 1.6 0 0 1-.242.429 2 2 0 0 1-.175.204q-.09.09-.147.158a.4.4 0 0 1-.117.102 4 4 0 0 0-.213.127.55.55 0 0 0-.204.195 2 2 0 0 0-.096.232q-.044.13-.066.2a1 1 0 0 0-.04.217q-.015.148-.024.324l-.015.35q-.007.172-.008.313 0 .14-.01.267a4.408 4.408 0 0 1-.103.564.7.7 0 0 1-.101.194.8.8 0 0 0-.117.237 3 3 0 0 1-.089.255 5 5 0 0 1-.096.229q-.042.09-.108.189a.4.4 0 0 1-.153.142.21.21 0 0 0-.114.138 2 2 0 0 1-.104.265q-.078.17-.17.218a.5.5 0 0 0-.17.155 5 5 0 0 1-.142.194 3 3 0 0 1-.135.161.32.32 0 0 1-.176.1 1 1 0 0 0-.235.092q-.13.07-.22.13a.8.8 0 0 1-.22.095.9.9 0 0 0-.228.1.5.5 0 0 1-.15.073l-.216.052-.335.082a1.4 1.4 0 0 0-.251.08 1 1 0 0 0-.189.124.37.37 0 0 1-.204.092q-.097.005-.273.019t-.33.021l-.289.015a16 16 0 0 1-.992.017h-.93q-.13 0-.287-.03a.5.5 0 0 1-.216-.083.5.5 0 0 0-.218-.082q-.157-.03-.317-.063a4 4 0 0 0-.34-.057 1.2 1.2 0 0 1-.287-.065.5.5 0 0 1-.17-.107.7.7 0 0 0-.152-.114 1 1 0 0 0-.196-.089.5.5 0 0 1-.19-.122.6.6 0 0 0-.216-.137 2 2 0 0 1-.257-.117 1.3 1.3 0 0 1-.198-.127.5.5 0 0 0-.233-.086l-.255-.043a2 2 0 0 1-.249-.065 1 1 0 0 1-.252-.112.7.7 0 0 1-.157-.134 3 3 0 0 0-.127-.144.44.44 0 0 0-.205-.116 2 2 0 0 1-.23-.079l-.201-.086-.25-.11-.246-.115a.5.5 0 0 1-.187-.165.7.7 0 0 0-.168-.17 1 1 0 0 1-.121-.087 3 3 0 0 1-.14-.141 4 4 0 0 0-.217-.211.7.7 0 0 0-.194-.136q-.075-.03-.24-.065t-.228-.112l-.144-.169a3 3 0 0 1-.13-.161.5.5 0 0 0-.176-.13.5.5 0 0 1-.204-.185 2 2 0 0 0-.148-.21 1 1 0 0 0-.159-.16 1 1 0 0 1-.151-.158 1.3 1.3 0 0 0-.123-.147 2.594 2.594 0 0 0-.303-.269l-.207-.16a.8.8 0 0 1-.175-.185 1 1 0 0 0-.148-.177l-.128-.12a3 3 0 0 0-.157-.136 1.3 1.3 0 0 1-.33-.4 1 1 0 0 1-.09-.218 1.4 1.4 0 0 0-.078-.21.3.3 0 0 0-.156-.141.4.4 0 0 1-.181-.154 2 2 0 0 0-.114-.158 4 4 0 0 1-.116-.15.56.56 0 0 0-.206-.165.43.43 0 0 1-.197-.186 2 2 0 0 1-.089-.187l-.074-.189a2 2 0 0 0-.109-.233.65.65 0 0 0-.182-.203 2 2 0 0 1-.201-.167.8.8 0 0 1-.143-.186 3 3 0 0 0-.127-.205.4.4 0 0 0-.137-.133 3 3 0 0 1-.165-.097l-.197-.126a.35.35 0 0 1-.146-.2 1.3 1.3 0 0 0-.095-.232 4 4 0 0 0-.122-.203 1.5 1.5 0 0 0-.146-.191.33.33 0 0 0-.178-.108 1 1 0 0 1-.194-.058.7.7 0 0 1-.194-.13 3 3 0 0 1-.196-.2l-.192-.216a4 4 0 0 1-.145-.169 1.4 1.4 0 0 0-.135-.142.36.36 0 0 0-.176-.097q-.09-.016-.217-.04a.54.54 0 0 1-.24-.114.55.55 0 0 0-.25-.114 3 3 0 0 0-.28-.036 11 11 0 0 1-.291-.028.8.8 0 0 1-.252-.066l-.19-.088a.9.9 0 0 0-.237-.057q-.15-.018-.256-.028a.4.4 0 0 0-.198.03q-.095.039-.204.066-.11.028-.293.061l-.328.06a2.135 2.135 0 0 0-.558.207.4.4 0 0 0-.13.116q-.045.066-.1.159a.6.6 0 0 1-.147.161 2.4 2.4 0 0 0-.35.329.46.46 0 0 0-.097.243l-.033.26q-.014.105-.039.244a.8.8 0 0 1-.064.211 1 1 0 0 0-.068.233 8 8 0 0 0-.091.601 21.059 21.059 0 0 0-.047 1.288l-.002.613v.64q0 .161.003.307.004.147.017.269.015.12.082.223a1 1 0 0 1 .11.22 1 1 0 0 1 .052.209 13 13 0 0 1 .052.69q.004.162.004.322v3.52q0 .16-.004.325a3 3 0 0 1-.03.33 1.7 1.7 0 0 1-.147.482.6.6 0 0 0-.057.185 5 5 0 0 0-.03.305q-.015.21-.029.316-.014.105-.015.263l-.005.336-.003.338v.64q0 .16-.005.314a1.6 1.6 0 0 1-.037.292.4.4 0 0 1-.113.21.3.3 0 0 0-.099.177q-.018.105-.026.287a5 5 0 0 1-.023.33l-.04.335a1 1 0 0 1-.065.277 1 1 0 0 1-.117.184.4.4 0 0 0-.081.25 21 21 0 0 1-.026.55 3 3 0 0 1-.036.304l-.047.278a.4.4 0 0 1-.075.184.6.6 0 0 0-.086.219q-.03.142-.052.285-.023.143-.045.316a2 2 0 0 1-.054.29 1.5 1.5 0 0 1-.084.237l-.087.198a2 2 0 0 0-.072.251 5 5 0 0 1-.068.266q-.028.095-.063.185-.036.091-.084.243a9 9 0 0 0-.088.293 1.2 1.2 0 0 1-.206.423.5.5 0 0 0-.082.192l-.065.307a.9.9 0 0 1-.113.308 1 1 0 0 0-.102.189q-.029.078-.053.162l-.065.231a.46.46 0 0 1-.111.215.33.33 0 0 0-.095.154 7 7 0 0 1-.077.255.47.47 0 0 1-.163.25.35.35 0 0 0-.14.194q-.03.114-.09.28-.057.167-.107.254a4 4 0 0 0-.092.167l-.114.218a4 4 0 0 0-.182.38q-.061.135-.121.227a4 4 0 0 0-.21.355q-.076.144-.145.259a1.1 1.1 0 0 1-.153.204 1 1 0 0 0-.143.197q-.06.106-.12.178a.6.6 0 0 0-.103.17l-.108.264a8 8 0 0 0-.163.431q-.044.127-.095.234a.23.23 0 0 1-.158.134q-.107.028-.192.172a1.5 1.5 0 0 1-.144.213q-.06.069-.132.16a2 2 0 0 1-.144.164.6.6 0 0 0-.122.167q-.048.095-.115.188l-.117.16a2 2 0 0 1-.158.177q-.105.11-.155.202-.05.09-.111.21l-.06.12-.114.035a.25.25 0 0 0-.16.16l-.047.125h-.32l-.04-.144a.43.43 0 0 0-.123-.213.45.45 0 0 1-.126-.18 1.5 1.5 0 0 0-.093-.194 1 1 0 0 0-.13-.17.56.56 0 0 1-.125-.244 4 4 0 0 0-.095-.306 2.85 2.85 0 0 1-.122-.402 1.3 1.3 0 0 0-.069-.217.6.6 0 0 0-.13-.19.45.45 0 0 1-.118-.197 3 3 0 0 1-.056-.279 7 7 0 0 0-.054-.303q-.027-.132-.127-.168a.16.16 0 0 1-.113-.137 5 5 0 0 0-.05-.3 1.3 1.3 0 0 0-.072-.274l-.082-.176a1 1 0 0 1-.07-.199l-.162-.66a.3.3 0 0 0-.128-.17.22.22 0 0 1-.106-.182q-.008-.119-.014-.293a5 5 0 0 0-.03-.359 1.2 1.2 0 0 0-.056-.273 2 2 0 0 0-.09-.201 1 1 0 0 1-.074-.166l-.08-.257a3 3 0 0 0-.104-.292 6 6 0 0 1-.093-.216 1.5 1.5 0 0 1-.08-.266 2 2 0 0 1-.04-.269 3 3 0 0 0-.041-.288 1.4 1.4 0 0 0-.08-.27 2 2 0 0 0-.082-.175.7.7 0 0 1-.057-.216l-.042-.294a2 2 0 0 0-.057-.265q-.036-.122-.079-.261l-.072-.248a3 3 0 0 1-.048-.206 7.695 7.695 0 0 1-.077-.6 2 2 0 0 0-.052-.317 4 4 0 0 0-.144-.49 1 1 0 0 1-.04-.178 4 4 0 0 1-.039-.298 9 9 0 0 1-.027-.342 6 6 0 0 0-.028-.325 4 4 0 0 1-.026-.3 8 8 0 0 0-.025-.343 1 1 0 0 0-.046-.26 2 2 0 0 0-.078-.158.7.7 0 0 1-.07-.187 5.81 5.81 0 0 1-.077-.658l-.014-.31a7 7 0 0 1-.007-.314v-2.56q0-.16.006-.322t.042-.283a.8.8 0 0 1 .087-.198.6.6 0 0 0 .075-.206q.025-.129.051-.277.025-.15.04-.303l.038-.33a1.4 1.4 0 0 1 .138-.481.8.8 0 0 0 .054-.21q.021-.143.057-.303.035-.16.085-.269a.8.8 0 0 1 .106-.178.5.5 0 0 0 .091-.197q.036-.13.071-.294a2.4 2.4 0 0 1 .089-.312 7 7 0 0 0 .078-.224q.024-.077.077-.198a.9.9 0 0 1 .126-.211q.075-.09.125-.18a.7.7 0 0 0 .076-.208l.048-.252q.022-.135.07-.242a.7.7 0 0 1 .151-.212q.105-.105.14-.242t.081-.237l.091-.19q.045-.09.067-.21.021-.12.065-.27.043-.153.112-.325a5 5 0 0 0 .136-.37q.033-.096.073-.229t.092-.272a7 7 0 0 0 .144-.438q.03-.105.058-.26.027-.156.042-.277.014-.12.053-.267.037-.146.088-.254a1.4 1.4 0 0 0 .081-.218q.03-.11.042-.263l.027-.346q.015-.195.021-.339a7 7 0 0 0 .006-.303q0-.16-.002-.335a11 11 0 0 0-.025-.616.7.7 0 0 0-.053-.216 6 6 0 0 0-.11-.24l-.121-.253-.101-.214a1.222 1.222 0 0 0-.232-.335l-.166-.169-.178-.175a.5.5 0 0 0-.19-.118l-.218-.064a.3.3 0 0 1-.173-.113q-.053-.078-.188-.103-.136-.026-.31-.053a2 2 0 0 0-.328-.029q-.154 0-.283.006a.27.27 0 0 0-.214.126.36.36 0 0 1-.219.15q-.135.032-.254.065a29 29 0 0 1-.476.129 3 3 0 0 0-.231.084q-.163.066-.218.1a1 1 0 0 0-.143.118.8.8 0 0 1-.237.145l-.268.114a3.632 3.632 0 0 1-.419.16 2 2 0 0 0-.198.079.4.4 0 0 0-.16.132.4.4 0 0 1-.212.128q-.148.045-.258.091a.6.6 0 0 0-.183.115l-.362.335a1 1 0 0 1-.21.133 1.992 1.992 0 0 0-.517.36q-.042.047-.149.125-.105.079-.232.15a4 4 0 0 0-.202.119q-.075.048-.175.135a5 5 0 0 1-.178.15 2 2 0 0 1-.175.122q-.096.06-.212.164t-.186.15a2.834 2.834 0 0 0-.36.31l-.146.155q-.07.074-.194.174a2 2 0 0 0-.162.144 2 2 0 0 0-.121.166l-.145.215a.36.36 0 0 1-.136.128 3 3 0 0 1-.202.086 1 1 0 0 0-.218.112.5.5 0 0 0-.132.123 3 3 0 0 0-.113.185 2 2 0 0 1-.143.22q-.07.097-.16.185-.089.087-.179.19-.09.101-.171.163a1.4 1.4 0 0 0-.176.163l-.293.308a4 4 0 0 0-.293.335 2 2 0 0 1-.141.156q-.073.07-.153.138l-.198.172a3 3 0 0 0-.18.168.33.33 0 0 0-.076.189.8.8 0 0 1-.089.266.45.45 0 0 1-.168.194.4.4 0 0 0-.152.157 1 1 0 0 1-.128.18.8.8 0 0 1-.158.13q-.09.057-.179.124-.089.068-.19.18a2 2 0 0 0-.156.198 2 2 0 0 1-.123.17 1.7 1.7 0 0 1-.272.274.8.8 0 0 0-.123.125 1.2 1.2 0 0 1-.149.154q-.087.075-.216.194a6 6 0 0 1-.186.167 7 7 0 0 1-.36.281q-.094.07-.184.13-.09.061-.194.104-.105.044-.196.085l-.208.094-.212.099a.8.8 0 0 0-.2.145.53.53 0 0 1-.292.13 6 6 0 0 1-.558.064q-.167.013-.293.036t-.166.12-.178.11-.311.031a.45.45 0 0 1-.294-.056q-.122-.075-.207-.122a.6.6 0 0 0-.209-.063l-.257-.031a7 7 0 0 1-.31-.045 2 2 0 0 1-.303-.071.5.5 0 0 1-.19-.1.46.46 0 0 0-.209-.087 2 2 0 0 1-.263-.072.7.7 0 0 1-.21-.111 1.2 1.2 0 0 0-.188-.123 2 2 0 0 1-.21-.129 1 1 0 0 0-.195-.113l-.203-.087a1.6 1.6 0 0 1-.212-.112 4 4 0 0 0-.217-.13 4 4 0 0 1-.213-.126 1 1 0 0 1-.182-.158 1 1 0 0 1-.131-.165 1.069 1.069 0 0 0-.281-.325 2 2 0 0 1-.176-.156A5 5 0 0 0 2.87 44a1 1 0 0 1-.144-.147 1 1 0 0 1-.107-.188 3 3 0 0 0-.14-.259 5 5 0 0 0-.154-.24 3 3 0 0 0-.132-.177.6.6 0 0 0-.14-.127q-.075-.048-.092-.158a.9.9 0 0 0-.083-.249l-.12-.24a2.5 2.5 0 0 0-.256-.405 7 7 0 0 1-.152-.209 1 1 0 0 1-.099-.167 5 5 0 0 1-.093-.236 5 5 0 0 0-.095-.238 2 2 0 0 1-.067-.178 2 2 0 0 0-.081-.2q-.045-.094-.09-.205l-.092-.244q-.05-.135-.109-.285l-.103-.26a3 3 0 0 0-.07-.165 1.3 1.3 0 0 1-.063-.252 4 4 0 0 1-.05-.336l-.027-.257a.5.5 0 0 0-.074-.206q-.06-.092-.148-.192L0 38.08v-5.76l.132-.019q.13-.018.16-.154.03-.135.05-.337a.64.64 0 0 1 .078-.288q.059-.086.094-.146a.6.6 0 0 0 .054-.183q.019-.124.053-.28.033-.155.086-.27.054-.115.092-.236l.07-.227q.03-.106.085-.262a7 7 0 0 1 .2-.506q.04-.09.07-.219l.052-.23a.22.22 0 0 1 .11-.152q.089-.05.134-.208t.098-.294.142-.182a.6.6 0 0 0 .172-.146q.084-.099.18-.186.096-.086.15-.147.055-.06.136-.132t.156-.143.152-.152a1 1 0 0 0 .147-.215q.069-.132.12-.217l.105-.184a3 3 0 0 0 .105-.204.22.22 0 0 1 .168-.13.862.862 0 0 0 .421-.195 4 4 0 0 1 .417-.294q.075-.042.187-.096.113-.055.23-.145l.19-.144a.5.5 0 0 1 .176-.082l.251-.066a1 1 0 0 0 .233-.09q.087-.05.237-.098a4 4 0 0 0 .512-.201 2 2 0 0 1 .256-.1q.06-.014.214-.044.152-.03.245-.036l.266-.024q.174-.016.334-.016t.329.006l.313.011a.9.9 0 0 1 .276.055q.13.05.228.08.096.033.199.056l.261.062q.16.038.323.087.165.048.267.1t.185.085q.082.033.216.067l.244.059a.3.3 0 0 1 .168.096q.06.07.238.117l.27.075q.09.027.192.122a.6.6 0 0 0 .204.135q.103.039.281.06a.7.7 0 0 1 .267.072q.09.053.182.132a.37.37 0 0 0 .225.086 39 39 0 0 1 .595.036 1 1 0 0 1 .28.055q.108.044.16.123.052.08.177.098.124.017.281.026a14 14 0 0 0 .679.019h.623q.143 0 .278.01t.249.1.19.13.27.052l.348.02q.152.01.297.008h2.865a12 12 0 0 1 .584.015q.139.008.273.044.133.037.226.15a.32.32 0 0 0 .261.112q.169 0 .294-.003a8 8 0 0 1 .283 0q.159.002.342.018.183.015.293.063a3 3 0 0 0 .382.138q.08.023.246.044.166.022.34.077t.309.091.215.066l.19.07q.112.04.184.072.075.03.182.1a1 1 0 0 0 .224.108l.25.08q.134.044.32.111l.419.152q.052.02.216.113a1 1 0 0 1 .235.172q.072.08.14.166a.4.4 0 0 0 .13.118q.063.032.22.1.157.066.247.095.09.03.194.146l.153.173a.5.5 0 0 0 .149.112q.101.055.19.084.088.03.254.077a.36.36 0 0 1 .233.18q.069.13.185.143l.117.013-.025-.19a1.5 1.5 0 0 0-.056-.277.5.5 0 0 0-.12-.175.46.46 0 0 1-.12-.216 3 3 0 0 0-.064-.22 1 1 0 0 0-.063-.154 5 5 0 0 1-.1-.205 2 2 0 0 0-.147-.27l-.153-.245a1.4 1.4 0 0 0-.11-.162 1 1 0 0 0-.109-.106l-.171-.145a1 1 0 0 1-.159-.161.8.8 0 0 1-.107-.218 5 5 0 0 0-.111-.287q-.062-.147-.151-.19a.4.4 0 0 1-.157-.149.6.6 0 0 0-.183-.177.5.5 0 0 1-.177-.174 1 1 0 0 0-.102-.148l-.128-.133a.8.8 0 0 0-.193-.145 1 1 0 0 1-.173-.115 2 2 0 0 1-.15-.15 7.567 7.567 0 0 0-.423-.425 1 1 0 0 1-.128-.137 3 3 0 0 0-.114-.135 2 2 0 0 1-.138-.182.34.34 0 0 0-.22-.144l-.243-.054a.4.4 0 0 1-.188-.116 2 2 0 0 0-.157-.147l-.16-.13a1 1 0 0 1-.161-.161 1 1 0 0 0-.166-.164 1 1 0 0 0-.198-.123 1.3 1.3 0 0 1-.188-.104 1 1 0 0 0-.198-.103l-.258-.104a1 1 0 0 1-.196-.098 3 3 0 0 0-.154-.111.8.8 0 0 0-.24-.106q-.135-.036-.33-.072a1.3 1.3 0 0 1-.286-.079l-.184-.085a2 2 0 0 0-.244-.082q-.148-.04-.326-.093a1.3 1.3 0 0 1-.223-.08 2 2 0 0 0-.2-.092 1.2 1.2 0 0 0-.47-.106 7 7 0 0 0-.263-.011q-.15-.004-.349-.013a8 8 0 0 0-.342-.01q-.144 0-.285-.01a3 3 0 0 1-.285-.028.33.33 0 0 1-.221-.119q-.078-.099-.162-.073a.4.4 0 0 0-.164.102q-.078.076-.193.016l-.197-.104a.8.8 0 0 0-.172-.067.36.36 0 0 0-.185 0 .7.7 0 0 0-.187.083.58.58 0 0 1-.424.073 6 6 0 0 0-.223-.053l-.237-.05a1.4 1.4 0 0 0-.24-.03l-.314-.016-.342-.019a10 10 0 0 0-.333-.012q-.181-.003-.32-.009a3 3 0 0 1-.273-.024.25.25 0 0 1-.196-.14.27.27 0 0 0-.196-.148 1 1 0 0 1-.208-.06.43.43 0 0 1-.158-.14.31.31 0 0 0-.235-.12 1 1 0 0 1-.252-.05.5.5 0 0 1-.188-.128l-.148-.148-.158-.151-.21-.193a.45.45 0 0 1-.14-.204 3 3 0 0 0-.082-.235.8.8 0 0 0-.128-.22.37.37 0 0 1-.09-.18l-.04-.26a.7.7 0 0 0-.109-.287 1 1 0 0 1-.104-.18 1 1 0 0 1-.046-.174 2 2 0 0 1-.034-.296 10 10 0 0 0-.026-.334q-.014-.15-.041-.291a.7.7 0 0 0-.085-.233 1.3 1.3 0 0 1-.092-.17 1 1 0 0 1-.046-.273 7 7 0 0 0-.032-.359 3 3 0 0 1-.021-.304l-.002-.303v-1.92q0-.16.01-.293l.021-.284a.32.32 0 0 1 .132-.242q.12-.09.144-.17.024-.077.07-.181.047-.105.08-.194l.083-.207q.048-.117.12-.238a.6.6 0 0 1 .16-.18.8.8 0 0 0 .177-.174q.087-.114.157-.2a.93.93 0 0 1 .391-.277q.114-.042.232-.09a.25.25 0 0 0 .156-.17q.037-.122.181-.126t.323-.017.33-.02q.15-.005.275-.039a.6.6 0 0 0 .191-.084.36.36 0 0 1 .152-.067q.085-.017.246-.032a4 4 0 0 1 .327-.017q.167-.003.227.12t.198.13.287 0 .286-.004.295-.026a5 5 0 0 1 .306-.041.37.37 0 0 0 .23-.094.5.5 0 0 1 .199-.12q.12-.043.242-.119.123-.075.185-.098.061-.023.2-.08l.21-.091a1.3 1.3 0 0 0 .187-.114q.116-.082.205-.191.09-.11.19-.195.102-.087.158-.144l.288-.29q.033-.032.135-.14l.179-.189a4 4 0 0 1 .338-.318l.168-.138q.098-.082.163-.167.066-.084.155-.172l.169-.17a.5.5 0 0 1 .145-.114l.182-.086q.116-.056.226-.138.11-.084.162-.139t.201-.076q.149-.02.305-.05.155-.03.278-.07t.192-.059a3.4 3.4 0 0 1 .493-.095 9 9 0 0 1 .666-.068q.207-.015.338-.022t.293-.009l.321-.001h.32q.16 0 .306.006.147.008.305.012.16.005.281.015a.34.34 0 0 1 .198.079q.076.067.226.097l.307.061q.158.03.284.068a.5.5 0 0 1 .202.103.6.6 0 0 0 .198.109q.123.043.25.097a.36.36 0 0 1 .18.148q.053.095.206.132a1 1 0 0 1 .278.116q.124.078.213.124.087.045.135.053t.22.031q.174.023.239.117.065.093.14.196a5 5 0 0 0 .348.418q.072.073.17.138a1 1 0 0 1 .156.122q.057.058.133.142.075.085.187.176.11.09.178.161a.7.7 0 0 1 .097.123q.03.05.118.17.087.12.171.193t.159.139.199.168a2 2 0 0 1 .314.31q.1.114.188.204.087.092.127.14a.7.7 0 0 0 .117.11q.077.06.167.17a1 1 0 0 1 .14.221q.05.111.121.246.072.136.106.208l.077.175q.042.102.12.222t.199.142.26.016.141-.139a4 4 0 0 1 .054-.577q.028-.156.08-.287.05-.131.067-.194.015-.063.041-.217a6 6 0 0 1 .122-.577q.05-.201.1-.311t.064-.17q.015-.063.043-.214.03-.15.05-.278.021-.126.06-.238a.6.6 0 0 1 .139-.212.4.4 0 0 0 .116-.224 1 1 0 0 1 .07-.24.7.7 0 0 1 .135-.202.35.35 0 0 0 .1-.215 1.2 1.2 0 0 1 .063-.266l.076-.22q.03-.084.063-.174.035-.09.076-.254.041-.166.078-.297a.7.7 0 0 1 .11-.23 1 1 0 0 0 .097-.153q.025-.056.126-.225.1-.17.162-.252a.6.6 0 0 0 .09-.181 1 1 0 0 1 .091-.211q.062-.111.093-.155.03-.044.104-.186a7 7 0 0 0 .251-.543l.073-.175a6 6 0 0 1 .1-.21 1 1 0 0 1 .146-.224q.078-.083.138-.155.06-.07.13-.145t.182-.186a5 5 0 0 0 .176-.182 1 1 0 0 1 .136-.123 1 1 0 0 0 .152-.15 1.6 1.6 0 0 0 .154-.229 7 7 0 0 0 .223-.421q.024-.045.091-.164a.44.44 0 0 1 .154-.167q.085-.05.19-.133.102-.084.185-.176a4 4 0 0 1 .142-.151l.16-.157a1 1 0 0 1 .172-.138q.07-.04.22-.09t.209-.078a.6.6 0 0 0 .147-.119l.194-.2q.107-.11.19-.185a.46.46 0 0 1 .207-.103q.123-.03.234-.077a.7.7 0 0 0 .212-.145 1.6 1.6 0 0 0 .184-.212 3 3 0 0 1 .14-.183q.06-.068.205-.098a.9.9 0 0 0 .24-.08q.094-.051.186-.087a1.3 1.3 0 0 1 .242-.062q.15-.025.285-.057.135-.03.26-.079a.7.7 0 0 0 .201-.112.36.36 0 0 1 .188-.08q.111-.013.281-.027a3 3 0 0 0 .32-.044q.15-.03.281-.07.133-.038.16-.14Z M27.59 64.078q.08.094.116.066.037-.029.073-.06.037-.033.13-.145a8 8 0 0 0 .29-.37 9 9 0 0 1 .292-.374q.066-.081.145-.206a3 3 0 0 0 .197-.349 30 30 0 0 1 .238-.444q.047-.085.122-.2a19 19 0 0 0 .483-.782q.066-.117.109-.199.044-.081.092-.197l.112-.271.105-.257q.042-.103.08-.203t.075-.182a28 28 0 0 0 .196-.45 3 3 0 0 1 .114-.241l.095-.185q.036-.075.118-.238t.107-.243a3 3 0 0 1 .064-.19q.041-.109.103-.283l.19-.527q.03-.082.05-.163.02-.083.063-.234t.086-.272q.044-.12.075-.227.03-.105.053-.197l.066-.255.093-.355q.052-.19.084-.281l.063-.184q.03-.093.06-.226.027-.133.067-.285.038-.153.079-.3a10 10 0 0 0 .115-.465q.022-.106.038-.205l.036-.264a17 17 0 0 1 .104-.7q.024-.135.053-.224l.079-.258a3 3 0 0 0 .063-.232q.013-.064.037-.25.022-.187.025-.318.002-.131.008-.292a4 4 0 0 1 .037-.365 3 3 0 0 1 .096-.458q.03-.105.06-.264l.06-.302q.028-.144.028-.244 0-.099.013-.295a8 8 0 0 0 .016-.317q.003-.121.01-.299.007-.177.007-.337v-5.1q0-.14-.009-.302a2 2 0 0 0-.04-.308l-.06-.27a5 5 0 0 0-.067-.246 6 6 0 0 1-.068-.249 1.2 1.2 0 0 1-.037-.254l-.009-.283-.012-.333a11 11 0 0 1-.01-.326l-.008-.649v-.64q0-.16.008-.321.008-.162.038-.323.03-.162.06-.28l.046-.197q.017-.077.045-.161t.076-.274a19 19 0 0 1 .194-.698l.047-.126q.03-.078.096-.218a3 3 0 0 1 .11-.215q.045-.075.1-.146.053-.072.137-.196.083-.125.163-.205l.16-.16.16-.16.16-.16.16-.156a2 2 0 0 1 .151-.133 25 25 0 0 1 .396-.312 1.4 1.4 0 0 1 .182-.12q.097-.053.2-.096l.254-.106q.152-.063.26-.086a10 10 0 0 0 .453-.109q.167-.044.29-.093a1 1 0 0 1 .255-.06q.13-.014.26-.023a1 1 0 0 1 .213.005q.084.014.155.03.071.014.187.032.116.017.23.029l.34.035q.222.024.35.035.129.012.28.057l.288.084q.139.039.181.058a4 4 0 0 0 .183.072 8 8 0 0 1 .463.191l.47.215q.12.054.18.09.063.037.195.11a6 6 0 0 1 .44.277q.059.044.18.153a12 12 0 0 1 .342.319l.142.142.16.16.16.16.16.16.16.16.16.16.16.16.16.16.16.16q.08.08.154.162a2.6 2.6 0 0 1 .271.356q.057.092.141.212a21 21 0 0 0 .271.378q.06.08.148.172.086.091.14.161l.124.165.12.156q.048.06.128.184.08.123.185.263.104.141.15.197.048.058.117.136a26 26 0 0 0 .443.486l.168.172.16.16.16.16.16.16.16.16.16.16.16.16.16.16.16.16.16.16.16.16.16.16.16.16.16.16q.08.08.15.135l.17.136q.102.081.178.132a9 9 0 0 1 .366.258q.088.064.19.145l.198.155q.094.075.176.122.081.048.208.133l.214.143q.086.06.177.116l.2.124a2.3 2.3 0 0 0 .38.191q.096.04.263.104l.257.097q.09.03.198.076.11.045.252.115l.234.114q.09.042.213.086l.445.162q.1.036.228.075l.254.08q.126.04.24.065l.273.063a9 9 0 0 1 .55.15q.101.033.217.053a18 18 0 0 0 .48.075q.086.012.257.01.17 0 .361-.023.192-.021.295-.035.105-.013.188-.03.084-.018.212-.04a10 10 0 0 0 .895-.21q.112-.033.189-.062.078-.028.226-.116l.199-.117a2.178 2.178 0 0 0 .353-.285q.095-.095.158-.162a1 1 0 0 0 .106-.132q.042-.066.12-.22.078-.155.146-.319a2 2 0 0 0 .13-.414 2 2 0 0 0 .06-.435.8.8 0 0 0-.045-.272 4 4 0 0 0-.09-.262l-.09-.236a3 3 0 0 1-.07-.192l-.044-.144a2 2 0 0 1-.057-.215.6.6 0 0 1 .016-.28q.045-.152.082-.249a.7.7 0 0 1 .173-.264q.057-.06.165-.161a36 36 0 0 1 .516-.475q.118-.105.208-.192t.16-.15.15-.143l.16-.16.16-.16.175-.177q.095-.097.156-.169a2 2 0 0 0 .107-.135q.045-.063.109-.187.065-.123.108-.217.044-.093.085-.234l.057-.196a22 22 0 0 1 .281-.898 1 1 0 0 0 .031-.146q.01-.075.04-.201.03-.127.059-.361t.033-.335.007-.26a14 14 0 0 0-.003-.627 1.6 1.6 0 0 0-.03-.309 23 23 0 0 0-.127-.537 2 2 0 0 1-.043-.204 9 9 0 0 0-.194-.842 2 2 0 0 0-.06-.179 9 9 0 0 0-.199-.427 3 3 0 0 1-.096-.198 29 29 0 0 0-.226-.49l-.108-.235a1.4 1.4 0 0 0-.091-.167l-.123-.196a4 4 0 0 0-.142-.214l-.127-.182a3 3 0 0 1-.099-.154 7 7 0 0 0-.257-.402 4 4 0 0 0-.31-.398l-.139-.158a3 3 0 0 0-.154-.165l-.16-.16-.16-.16-.16-.16-.16-.16-.16-.16-.16-.16-.16-.16a.4.4 0 0 0-.124-.095.4.4 0 0 0-.101-.02q-.057-.006-.194.066a1.6 1.6 0 0 0-.367.249 11 11 0 0 0-.338.293q-.076.067-.144.12a2 2 0 0 1-.14.102l-.414.267q-.09.057-.217.15a2 2 0 0 1-.193.13l-.224.12q-.157.086-.256.127l-.2.087q-.1.045-.2.08a8 8 0 0 0-.241.085 1 1 0 0 1-.245.062l-.255.023q-.15.015-.32.023a11 11 0 0 0-.312.02 10 10 0 0 1-.955.031h-.32a24 24 0 0 1-.638-.008 5 5 0 0 1-.308-.016l-.328-.025a1.1 1.1 0 0 1-.297-.055l-.2-.071a5 5 0 0 0-.187-.062l-.252-.078a5 5 0 0 1-.231-.076 5 5 0 0 1-.24-.097q-.15-.065-.255-.108a5 5 0 0 1-.235-.107 3 3 0 0 0-.198-.088l-.19-.076a3 3 0 0 0-.284-.098q-.164-.046-.273-.088a5 5 0 0 0-.407-.136l-.251-.078-.256-.077a5 5 0 0 1-.256-.082l-.214-.071a7 7 0 0 1-.27-.095 11 11 0 0 0-.452-.154 2 2 0 0 0-.219-.057 4.427 4.427 0 0 1-.537-.135 15 15 0 0 0-.538-.162 2 2 0 0 0-.209-.043 3 3 0 0 0-.311-.034l-.317-.021a8 8 0 0 1-.282-.023 4 4 0 0 0-.315-.017l-.33-.002h-.64a6 6 0 0 0-.704.042q-.2.023-.307.044a20 20 0 0 1-.466.09 9 9 0 0 1-.455.078 5 5 0 0 0-.295.053 12 12 0 0 0-.593.143q-.1.029-.22.065l-.234.07q-.114.033-.258.08a12 12 0 0 1-.467.143 3.255 3.255 0 0 0-.955.326q-.124.052-.233.095t-.212.107a5 5 0 0 0-.364.248q-.084.065-.192.134a4 4 0 0 1-.366.207 6 6 0 0 0-.387.214 8 8 0 0 0-.5.324q-.084.06-.175.118t-.18.097q-.09.039-.188.087a6 6 0 0 1-.278.124q-.18.076-.226.1a.4.4 0 0 0-.113.12 4 4 0 0 1-.147.196l-.155.198a1 1 0 0 1-.136.148q-.061.05-.204.15a1 1 0 0 1-.215.127q-.073.026-.163.066a.6.6 0 0 1-.232.043 5 5 0 0 1-.323-.007 1 1 0 0 1-.255-.037q-.076-.027-.118-.122a3 3 0 0 1-.094-.24l-.093-.254a1 1 0 0 1-.056-.196 2 2 0 0 0-.04-.185 2 2 0 0 1-.049-.262l-.037-.294a8 8 0 0 0-.161-.888 8 8 0 0 1-.054-.246 2 2 0 0 1-.033-.24 7 7 0 0 0-.071-.62 2 2 0 0 1-.029-.298l-.005-.326a11 11 0 0 0-.049-.928 1.4 1.4 0 0 0-.053-.285 2 2 0 0 1-.048-.17l-.044-.228a3 3 0 0 1-.04-.318 8 8 0 0 0-.023-.269l-.03-.302a7 7 0 0 1-.024-.36 13 13 0 0 1-.011-.642v-2.24q0-.16.016-.325l.03-.312q.016-.147.037-.228.021-.08.044-.202a5 5 0 0 1 .045-.22q.023-.1.052-.297.03-.195.038-.337.008-.14.026-.312.019-.173.021-.339l.007-.317q.004-.15.004-.311 0-.16.003-.337a3.3 3.3 0 0 1 .054-.565q.025-.14.052-.252l.06-.254q.036-.142.065-.279t.044-.257q.015-.12.028-.288l.028-.317q.013-.148.036-.335.022-.186.052-.281t.05-.238.026-.198a.2.2 0 0 0-.03-.11 3 3 0 0 1-.092-.166l-.234-.458-.21-.43-.106-.216a3 3 0 0 0-.096-.18l-.11-.195a4 4 0 0 0-.275-.414 4 4 0 0 1-.243-.361q-.059-.096-.125-.199a2 2 0 0 0-.143-.198l-.141-.18a4 4 0 0 0-.125-.157 2 2 0 0 1-.125-.173 16 16 0 0 0-.406-.597 2 2 0 0 0-.149-.191l-.155-.185a2 2 0 0 0-.139-.153q-.074-.076-.154-.156L28 11.2a3 3 0 0 0-.154-.145l-.189-.165a3 3 0 0 0-.352-.267l-.368-.237-.193-.129a7 7 0 0 0-.87-.507l-.37-.187a2 2 0 0 0-.217-.094q-.124-.045-.244-.086a4 4 0 0 0-.272-.084l-.296-.082a3 3 0 0 0-.417-.093l-.216-.027a7 7 0 0 1-.346-.048 2.2 2.2 0 0 0-.63-.015q-.194.018-.321.036-.128.018-.257.048a9 9 0 0 1-.422.083 2 2 0 0 0-.277.073q-.168.054-.269.09a2 2 0 0 0-.208.09l-.237.117a3 3 0 0 1-.195.09 5 5 0 0 0-.195.087q-.13.059-.225.124l-.16.107a4 4 0 0 0-.187.133l-.22.168q-.097.075-.166.138l-.153.138a5 5 0 0 0-.17.16l-.164.164-.16.16-.16.16-.16.16-.16.16-.16.16-.16.16q-.08.08-.147.14t-.157.128q-.09.066-.186.129a2 2 0 0 1-.262.134 6 6 0 0 1-.254.106q-.086.032-.23.088a2 2 0 0 1-.251.081q-.107.027-.207.046a2 2 0 0 1-.233.026 4.5 4.5 0 0 1-.69-.02 3 3 0 0 1-.372-.054l-.256-.045a7 7 0 0 0-.263-.045 2 2 0 0 0-.3-.02l-.31-.003q-.13 0-.323.027a2 2 0 0 0-.279.052 1 1 0 0 0-.176.075 6 6 0 0 0-.406.25q-.052.039-.185.15a2 2 0 0 0-.2.178 3 3 0 0 0-.131.148 1 1 0 0 0-.117.173q-.052.093-.106.198a2 2 0 0 0-.093.206 48 48 0 0 0-.26.705q-.044.135-.063.228-.02.094-.03.29-.01.198-.011.354a1.6 1.6 0 0 0 .02.286 7 7 0 0 0 .087.441 5 5 0 0 1 .08.486q.015.129.03.325a44 44 0 0 1 .05.667q.013.167.033.257a21 21 0 0 0 .128.535l.052.178q.03.107.097.307.066.201.1.312a1.2 1.2 0 0 0 .15.333q.064.114.12.221.059.107.154.232a1.8 1.8 0 0 0 .32.33l.15.124a2.3 2.3 0 0 0 .403.261q.124.063.205.083t.244.052q.162.03.293.045.13.013.288.035.159.022.289.023.13 0 .292.01.162.007.327.009l.666.003h.32q.16 0 .317.004t.313.023.343.056a6 6 0 0 1 .48.113q.095.028.244.047.15.018.263.027.113.008.26.026l.327.037q.18.02.329.042.148.023.24.046.094.023.227.062.135.037.24.06l.286.06a7 7 0 0 1 .54.136q.084.026.173.067l.651.304q.073.035.219.113.145.076.272.139a14 14 0 0 1 .352.179q.077.039.215.103.139.064.236.112t.238.128.248.145.16.113a29 29 0 0 0 .86.725q.096.084.167.135l.18.13.216.16q.105.082.213.155.108.074.165.123t.127.116l.15.148q.084.08.122.133.039.052.156.222.117.169.179.263.062.093.119.168l.144.185q.087.11.137.164l.147.157q.098.104.16.184.063.08.126.182a6 6 0 0 0 .23.347l.118.172q.078.114.134.205.054.09.12.192l.125.197q.06.094.151.223.09.127.142.196a10 10 0 0 1 .245.348q.078.116.136.212t.103.204.08.202.082.207a20 20 0 0 1 .22.561 18 18 0 0 0 .169.425q.038.09.092.197a2 2 0 0 1 .085.186q.032.081.05.258.02.177.02.269 0 .091-.051.206a.4.4 0 0 1-.124.162.5.5 0 0 1-.242.059q-.17.01-.278.01-.108-.002-.268-.018a4 4 0 0 1-.351-.056 2 2 0 0 1-.285-.074 1 1 0 0 1-.186-.09 2 2 0 0 1-.184-.127 4 4 0 0 0-.163-.117q-.07-.047-.16-.116a4 4 0 0 0-.373-.255 3 3 0 0 1-.203-.136l-.197-.145a8 8 0 0 1-.21-.157 1.4 1.4 0 0 0-.143-.103l-.21-.11-.255-.132-.165-.087-.188-.096-.214-.109a2 2 0 0 0-.23-.095l-.228-.074a6 6 0 0 1-.226-.076 9 9 0 0 0-.265-.089l-.27-.09q-.129-.045-.217-.073a7 7 0 0 1-.435-.16 3 3 0 0 0-.495-.146l-.567-.112a37 37 0 0 1-.814-.173 2 2 0 0 0-.197-.038l-.327-.05a4 4 0 0 0-.32-.036l-.265-.014a10 10 0 0 0-.323-.01 44 44 0 0 0-.654-.006h-3.21q-.17-.002-.286-.023a7 7 0 0 0-.302-.047 2 2 0 0 1-.328-.067 3 3 0 0 0-.206-.054l-.216-.045a3 3 0 0 0-.562-.064l-.306-.008a7 7 0 0 1-.335-.016l-.343-.026a4 4 0 0 1-.31-.036l-.244-.042a2 2 0 0 1-.198-.052q-.108-.036-.243-.077a3 3 0 0 1-.247-.088 4 4 0 0 0-.255-.095 2 2 0 0 1-.241-.093 5 5 0 0 0-.226-.097 7 7 0 0 1-.222-.094l-.204-.09a2 2 0 0 0-.177-.07l-.263-.083-.534-.163a13 13 0 0 1-.461-.161 5 5 0 0 0-.457-.147 4 4 0 0 0-.497-.1 3 3 0 0 0-.32-.03q-.145-.003-.31-.003-.164 0-.335.02a9 9 0 0 0-.561.082 1 1 0 0 0-.201.066q-.12.05-.21.098l-.194.106a3 3 0 0 0-.203.123l-.42.28q-.075.05-.172.104-.096.056-.22.125a2 2 0 0 0-.212.14l-.158.12a2 2 0 0 0-.144.12q-.074.066-.152.139a2 2 0 0 0-.167.186q-.09.114-.155.212a2 2 0 0 0-.11.187 2.909 2.909 0 0 1-.268.388 5 5 0 0 0-.293.384 3 3 0 0 0-.125.206l-.104.19q-.035.067-.098.197l-.091.188a6 6 0 0 0-.1.225 2.07 2.07 0 0 0-.153.433l-.063.265a10 10 0 0 1-.155.57 3 3 0 0 0-.07.253l-.046.202-.051.247q-.03.145-.078.34a27 27 0 0 1-.14.517 1 1 0 0 0-.033.131q-.012.062-.035.266a8 8 0 0 0-.038.405q-.012.2-.025.35a9.386 9.386 0 0 0-.024.6q-.001.124-.007.285a4.5 4.5 0 0 0 .028.668 6 6 0 0 0 .156.794q.032.127.035.172.001.045.033.257l.055.37q.023.16.068.35a9 9 0 0 0 .177.663q.038.119.104.312l.145.42.076.211q.046.127.085.259a3.4 3.4 0 0 0 .175.47q.055.129.102.229l.084.188q.04.087.1.204l.15.275q.087.16.127.218l.139.187q.098.13.12.17.024.04.1.14.077.099.146.18.07.081.153.19.082.11.12.181l.069.13q.033.06.178.145.147.086.262.17.116.086.197.15.083.065.188.164a8 8 0 0 1 .302.294q.08.08.17.155.088.075.169.133a3 3 0 0 0 .357.223l.217.093q.172.075.28.107.106.032.214.068t.208.064.335.037a4 4 0 0 0 .624-.018 2 2 0 0 0 .216-.03q.072-.018.173-.05.102-.034.245-.094a6 6 0 0 0 .665-.325q.126-.07.22-.129t.207-.146a8 8 0 0 0 .2-.16 3 3 0 0 0 .143-.123l.458-.429a22 22 0 0 0 .342-.349q.083-.09.134-.163.05-.075.138-.196l.168-.233q.08-.11.134-.177l.266-.337a4 4 0 0 1 .279-.319 3 3 0 0 0 .13-.143q.051-.061.15-.2.096-.136.17-.227.073-.09.13-.173t.12-.165a11 11 0 0 1 .435-.533q.065-.072.128-.137l.16-.165q.095-.1.175-.179l.16-.16.16-.16.16-.16.16-.16.16-.16.16-.16.16-.16q.08-.08.182-.175a4 4 0 0 1 .189-.165q.087-.07.162-.116l.189-.117a4.6 4.6 0 0 0 .56-.413q.064-.06.139-.12a13 13 0 0 1 .565-.418 11 11 0 0 1 .413-.29 1.4 1.4 0 0 0 .158-.126 16 16 0 0 0 .325-.303 5 5 0 0 1 .352-.312q.113-.09.216-.155l.21-.13a4 4 0 0 1 .335-.185l.468-.24.37-.189a44 44 0 0 1 .674-.334l.237-.12a40 40 0 0 1 1.048-.525q.103-.05.18-.079.075-.03.21-.077l.227-.085q.094-.036.263-.096.168-.06.292-.108t.219-.076.176-.043q.081-.015.287-.034t.374-.04a5 5 0 0 1 .618-.033q.177 0 .306.003t.27.041l.275.075.25.07q.116.034.215.06.098.024.264.07a1.2 1.2 0 0 1 .45.22q.081.062.154.125l.307.271q.119.105.198.182.08.078.148.157.068.08.138.16.07.082.137.176.066.095.124.182.056.087.126.22.069.131.12.246.048.114.077.212.028.099.09.274l.097.278q.036.102.054.162.017.06.042.199a6 6 0 0 1 .074.615q.007.135.019.297a11 11 0 0 1 .026.662l.001.627a4 4 0 0 1-.066.71 4 4 0 0 1-.088.388q-.018.064-.046.204-.027.14-.065.307l-.069.317q-.03.15-.055.248a1 1 0 0 1-.082.21l-.11.214a5 5 0 0 0-.104.216l-.1.213q-.049.096-.114.23-.066.135-.112.25a7 7 0 0 1-.152.359 6 6 0 0 0-.089.232 23 23 0 0 1-.207.54 6 6 0 0 1-.101.219 3.4 3.4 0 0 0-.184.452q-.038.111-.075.21l-.08.233a6 6 0 0 1-.162.436 4 4 0 0 1-.115.263 5 5 0 0 0-.114.256 2 2 0 0 0-.068.186 2 2 0 0 1-.064.179 22 22 0 0 1-.209.514 2 2 0 0 0-.094.256 2 2 0 0 1-.075.216q-.048.12-.097.262a7 7 0 0 1-.102.28 2 2 0 0 0-.078.242q-.024.105-.037.24a5 5 0 0 1-.073.49q-.025.14-.059.318a3 3 0 0 1-.064.277q-.03.1-.068.251-.038.153-.051.263-.014.111-.035.234a3 3 0 0 0-.03.276q-.009.151-.012.328-.003.175-.004.332 0 .157-.005.313-.005.157-.005.316v1.6q0 .16.002.316t.018.331.052.344a8 8 0 0 0 .097.41l.057.229q.038.152.051.308l.025.32q.012.165.034.306l.045.266q.022.124.057.263l.057.227q.022.09.052.24.03.153.057.315.027.163.055.305.027.143.041.255t.046.229q.032.115.048.217t.055.286a16 16 0 0 1 .122.62 16 16 0 0 0 .128.61l.043.186.092.448a8 8 0 0 0 .217.823 4 4 0 0 1 .092.47q.015.117.05.322.033.205.073.346.04.142.06.223.019.08.052.183.035.102.079.252.045.149.082.259l.087.273a15 15 0 0 0 .137.425q.053.155.113.29t.134.243l.107.156q.032.047.113.142Z m6.748-36.184q-.012.086.06.066a.7.7 0 0 0 .173-.084q.1-.062.209-.148t.174-.144l.116-.102q.05-.042.13-.122l.16-.16.16-.16.16-.16q.08-.08.169-.153.089-.074.184-.143a3 3 0 0 0 .162-.128q.068-.057.188-.131a5 5 0 0 0 .434-.304l.153-.13q.09-.074.147-.127.059-.054.177-.151a5 5 0 0 1 .405-.298q.075-.047.162-.105.086-.059.209-.16.122-.1.18-.15l.154-.127q.1-.08.17-.14.071-.062.151-.113a10 10 0 0 1 .412-.244q.059-.033.153-.078.093-.045.262-.122l.288-.133q.12-.055.208-.1a3 3 0 0 0 .364-.222q.127-.09.226-.165.1-.076.204-.13.105-.056.164-.084t.186-.076q.126-.047.29-.116l.257-.107q.09-.038.186-.083l.2-.092q.105-.047.173-.081.069-.035.194-.08.124-.047.237-.08a23.84 23.84 0 0 1 .628-.161q.172-.041.265-.066a5 5 0 0 0 .46-.146q.093-.036.239-.087.146-.052.291-.1.146-.05.197-.07a4 4 0 0 1 .213-.066l.295-.089a5 5 0 0 0 .217-.07q.081-.03.167-.05a42 42 0 0 1 .857-.193q.113-.026.282-.071l.22-.06a14 14 0 0 0 .497-.154q.144-.049.25-.094.105-.045.224-.076.117-.031.186-.058l.255-.098a7 7 0 0 1 .306-.114q.12-.04.187-.068a3 3 0 0 1 .21-.069q.144-.042.313-.105.168-.06.242-.09.073-.028.145-.06a13 13 0 0 0 .696-.344 14 14 0 0 0 .365-.194l.205-.12a5 5 0 0 0 .397-.253q.042-.03.135-.09a20.871 20.871 0 0 0 .46-.323 2 2 0 0 0 .158-.13q.08-.07.187-.16t.197-.2q.09-.11.144-.169a.6.6 0 0 0 .085-.11l.117-.203q.087-.153.13-.24.045-.087.087-.19.042-.101.071-.204a4.4 4.4 0 0 0 .115-.589q.016-.144.04-.3.023-.156.066-.27a.773.773 0 0 0 .03-.4 2 2 0 0 1-.05-.371 3 3 0 0 0-.03-.278 3 3 0 0 1-.03-.313 24 24 0 0 1-.01-.62v-.32q0-.161-.009-.319l-.022-.32a3.326 3.326 0 0 0-.159-.785 2 2 0 0 0-.078-.177 3 3 0 0 0-.13-.228l-.144-.226a.6.6 0 0 0-.132-.145l-.178-.13a7 7 0 0 0-.243-.17q-.136-.09-.176-.121a16.083 16.083 0 0 1-.345-.298 2 2 0 0 0-.15-.12l-.357-.263-.207-.148a5 5 0 0 1-.338-.26l-.162-.131a4 4 0 0 1-.191-.162 1.2 1.2 0 0 1-.152-.155 1 1 0 0 1-.09-.135l-.134-.221a7 7 0 0 1-.162-.274l-.125-.225-.108-.199a3.4 3.4 0 0 1-.184-.416 2 2 0 0 1-.07-.227 9 9 0 0 0-.139-.507 8 8 0 0 0-.086-.274 3 3 0 0 1-.068-.234A11 11 0 0 1 49 6.565a7 7 0 0 0-.07-.332 2 2 0 0 0-.07-.242 2 2 0 0 1-.06-.196l-.054-.209a5 5 0 0 0-.08-.263 3 3 0 0 0-.113-.282l-.116-.242-.104-.215a2 2 0 0 0-.232-.378 9 9 0 0 0-.25-.318 5 5 0 0 0-.325-.36 8 8 0 0 0-.181-.18 1.4 1.4 0 0 0-.166-.14l-.163-.115a5 5 0 0 0-.226-.149l-.21-.128a5 5 0 0 0-.17-.095l-.225-.119a3 3 0 0 0-.205-.101l-.204-.09a1 1 0 0 0-.219-.072q-.088-.015-.25-.046a5 5 0 0 1-.319-.073 20 20 0 0 0-.541-.14 2 2 0 0 0-.2-.042 7 7 0 0 0-.245-.028l-.292-.03a2.527 2.527 0 0 0-.653.018 4 4 0 0 0-.548.115 4 4 0 0 1-.228.057q-.135.03-.248.05a2 2 0 0 0-.239.06q-.126.042-.285.102-.16.06-.244.085-.084.024-.201.07a8 8 0 0 0-.458.194 3 3 0 0 0-.205.106 19 19 0 0 1-.592.32q-.162.083-.246.133a1.8 1.8 0 0 0-.315.238 6 6 0 0 1-.178.16l-.186.161q-.09.078-.167.154l-.157.157-.16.16-.16.16-.16.16-.16.16-.16.16-.16.16-.16.16a4 4 0 0 0-.148.156l-.15.17a1.2 1.2 0 0 0-.139.191 4 4 0 0 1-.116.19q-.06.093-.128.224a3 3 0 0 1-.117.212l-.233.378a7 7 0 0 1-.13.195l-.12.175q-.043.064-.112.178-.07.114-.13.231a28 28 0 0 1-.238.441 15 15 0 0 0-.217.417l-.1.2q-.044.09-.097.203a3 3 0 0 0-.092.21l-.077.189a4 4 0 0 0-.094.247 6 6 0 0 1-.096.26l-.093.235a4 4 0 0 0-.078.22q-.03.09-.056.182l-.101.312-.143.435-.079.25a4 4 0 0 1-.109.3q-.059.143-.101.275a11 11 0 0 0-.132.435 5 5 0 0 0-.07.29 4 4 0 0 1-.066.274l-.069.237a4 4 0 0 0-.108.46 4 4 0 0 1-.066.281l-.092.33q-.05.182-.081.274a2 2 0 0 0-.05.18l-.037.21a3 3 0 0 1-.066.295q-.046.171-.079.317a6 6 0 0 1-.067.275l-.06.22a.6.6 0 0 0-.027.16q-.001.069.02.172.022.104.06.214.036.11.098.261l.102.25q.039.1.063.178.023.078.077.22a43 43 0 0 0 .219.587q.04.11.048.152l.049.21q.041.17.067.306l.064.307q.037.17.07.26.033.086.054.187l.047.208q.025.108.05.29t.053.324.08.354q.051.21.07.274l.046.15q.027.085.056.206.027.12.042.276a9 9 0 0 1 .034.648q.003.171.009.332.006.16.006.32v3.2q0 .16-.015.321l-.03.323q-.015.161-.046.298a5 5 0 0 0-.052.257l-.043.27q-.023.152-.023.205-.001.054-.013.14Z m-1.965-.004q-.001.113.095.096.096-.016.108-.103.014-.085.032-.22.02-.135.06-.304a4 4 0 0 1 .087-.308l.058-.178q.012-.037.037-.184.026-.146.036-.248l.03-.304q.022-.201.025-.374l.008-.336q.004-.162.004-.31 0-.149.004-.312l.003-.325V23.2q0-.16-.006-.334l-.013-.335a3 3 0 0 0-.025-.3l-.04-.298a7 7 0 0 0-.09-.501 28.3 28.3 0 0 0-.146-.526 1 1 0 0 0-.075-.193q-.042-.072-.095-.067-.054.006-.058.035a13 13 0 0 0-.066.611 15 15 0 0 0-.026.948v4.48q0 .16.008.314.007.155.018.3l.02.295q.007.149.007.26Z" fill="currentColor"/>
</svg>