<?xml version="1.0" encoding="UTF-8" standalone="no"?>
<svg
   viewBox="0 0 63.114448 66.924937"
   version="1.1"
   id="svg1"
   width="63.114449"
   height="66.924934"
   sodipodi:docname="logo-transparent.svg"
   inkscape:version="1.4.3 (0d15f75042, 2025-12-25)"
   xmlns:inkscape="http://www.inkscape.org/namespaces/inkscape"
   xmlns:sodipodi="http://sodipodi.sourceforge.net/DTD/sodipodi-0.dtd"
   xmlns="http://www.w3.org/2000/svg"
   xmlns:svg="http://www.w3.org/2000/svg">
  <sodipodi:namedview
     id="namedview1"
     pagecolor="#ffffff"
     bordercolor="#000000"
     borderopacity="0.25"
     inkscape:showpageshadow="2"
     inkscape:pageopacity="0.0"
     inkscape:pagecheckerboard="0"
     inkscape:deskcolor="#d1d1d1"
     inkscape:zoom="7.1849982"
     inkscape:cx="-1.0438416"
     inkscape:cy="35.977741"
     inkscape:window-width="1916"
     inkscape:window-height="1108"
     inkscape:window-x="0"
     inkscape:window-y="0"
     inkscape:window-maximized="1"
     inkscape:current-layer="svg1" />
  <defs
     id="defs1" />
  <path
     fill="currentColor"
     d="m 42.246928,0.14493541 c 0.868014,-0.078771 2.341224,-0.3515668 3.14,0.15 2.25138,0.3385957 4.274878,1.96863849 5.15,4.04999999 0.631283,1.0098646 0.186773,2.3056115 0.93,3.3000004 0.179841,1.190027 1.476255,1.521152 2.30137,2.16802 1.000156,0.8733912 1.685572,2.1175932 1.69863,3.4619802 0.419052,1.747291 0.424431,3.725675 -0.340299,5.372691 -0.133112,0.973047 -1.320583,1.345221 -1.789701,2.197309 -1.354976,0.700281 -2.628915,1.551252 -4.14,1.94 -1.165591,0.689795 -2.695711,0.78749 -3.9,1.29 -1.623152,0.391556 -3.298262,0.83884 -4.630668,1.888267 -1.216964,0.198473 -1.491109,1.369895 0.03373,0.965091 1.088648,-0.578397 2.174512,0.06058 3.33694,-0.0034 1.532462,-0.138332 2.853172,0.797053 4.32,1.08 1.810583,0.816844 4.07426,1.723108 5.93,0.54 1.174346,-0.260335 0.844178,-2.156289 2.21,-2.19 1.887735,0.424958 3.119417,2.142693 4.44,3.45 0.752844,1.178208 1.472792,2.33068 1.82,3.72 0.670391,1.108781 0.161594,2.635087 0.32,3.932483 0.122909,1.244909 -0.661727,2.371932 -1.21,3.437517 -0.455165,0.888301 -1.608925,1.351035 -1.34,2.54 0.004,1.440952 -0.806774,2.909149 -1.971176,3.686982 -1.623655,0.910647 -3.525659,1.113004 -5.350597,0.827581 -1.329778,-0.118082 -2.276717,-1.148881 -3.568229,-1.394521 -0.681019,-0.618214 -1.684243,-0.759624 -2.25,-1.56 -1.225775,-0.576701 -1.960306,-1.845596 -3.02,-2.69 -0.517396,-0.964583 -1.419413,-1.621741 -1.92,-2.59 -0.635573,-0.571854 -1.103309,-1.24094 -1.66,-1.85 -0.770671,-0.393474 -1.225104,-1.308764 -2.21,-1.31 -1.293704,-0.496534 -2.995463,-0.167365 -3.64,1.16 -0.413146,1.855381 -0.528,3.846013 -0.0486,5.676287 0.0121,2.042494 0.197847,4.122096 -0.271396,6.113713 0.04539,1.101144 -0.04776,2.155882 -0.32,3.19 -0.442564,1.982764 -0.753212,4.040693 -1.601768,5.939006 -0.621352,1.92045 -1.735839,3.642389 -2.695813,5.411935 -0.592904,0.999476 -1.438221,1.957409 -2.122423,2.879059 -0.719718,-0.186175 -1.005431,-1.343955 -1.24,-2.07 -0.580712,-1.10024 -0.881237,-2.35959 -1.28,-3.53 -0.466943,-1.858731 -1.120419,-3.693303 -1.390498,-5.616742 -0.212932,-1.286432 -0.431623,-2.556547 -0.565243,-3.846983 -0.120547,-2.195785 0.09559,-4.391706 0.907509,-6.435281 0.728295,-1.981375 1.718105,-3.873037 2.108232,-5.990994 0.470755,-1.587229 0.239118,-3.835857 -1.58,-4.42 -1.303795,-0.276711 -2.403043,0.70852 -3.6,1.11 -1.730681,1.045469 -3.544835,2.210257 -4.87,3.78 -1.025207,0.599086 -1.618464,1.790837 -2.57,2.54 -0.725674,1.207276 -1.816672,2.217139 -2.91,3.15 -0.90138,0.651409 -1.978031,0.826886 -2.98,1.15 -1.450541,-0.324322 -2.8777791,-0.825063 -4.0900004,-1.74 -1.6165898,-1.592538 -2.7028422,-3.630162 -3.39000001,-5.79 -0.2868588,-1.031965 -0.5200225,-1.985991 -0.39,-3.111964 0,-1.246012 0,-2.492024 0,-3.738036 0.6774332,-0.672595 0.6540472,-1.98395 1.15000001,-2.9 0.1972744,-1.306284 1.5657645,-1.849289 2.03,-3.02 1.7596832,-1.182604 3.9756532,-2.340834 6.1269494,-1.440233 1.371575,0.362648 2.523767,1.263377 3.953051,1.330233 0.97831,0.521226 2.245745,0.08457 3.26,0.58 1.628563,0.09182 3.347411,-0.213563 4.86763,0.33 1.594448,0.131743 3.150808,0.739445 4.56237,1.47 0.593124,0.456883 1.779704,1.390231 2.190757,1.227195 -0.304763,-0.93832 -0.815243,-1.834098 -1.480757,-2.557195 -0.602085,-1.081904 -1.743319,-1.769225 -2.55,-2.7 -0.847365,-0.390314 -1.501119,-1.180963 -2.439675,-1.480698 -1.263492,-0.409248 -2.50886,-0.865924 -3.860325,-0.799302 -0.886466,-0.356838 -1.894029,-0.01847 -2.91,-0.24 -1.205908,0.113241 -2.281364,-0.490477 -3.143107,-1.266769 -0.832562,-1.237327 -1.035452,-2.784466 -1.196893,-4.247046 0.03379,-1.244816 -0.226778,-2.55495 0.54,-3.616185 0.571467,-1.095809 1.730598,-1.499414 2.85,-1.68 1.081066,0.11803 2.223306,0.389364 3.22,-0.38 1.593802,-0.954786 2.525786,-3.0657132 4.601815,-3.1251272 1.905725,-0.336642 3.91986,-0.125536 5.498185,1.045127 1.106723,0.377361 1.737462,1.6181682 2.66,2.3400002 0.947332,0.399501 1.123318,2.305152 2.07,2.03 0.178574,-1.994038 1.103196,-3.7290612 1.7,-5.6000002 0.787827,-1.2126787 1.185619,-2.6758709 2.360412,-3.6039657 0.602489,-1.3818285 2.099434,-1.892793 3.169588,-2.7860347 0.734723,-0.72573299 2.108352,-0.65939529 2.98,-1.12999999 z m -14.61,63.98000059 c 0.888641,-0.373722 1.297202,-1.7284 1.890664,-2.548621 1.836792,-3.390111 2.826012,-7.188033 3.289336,-10.991379 0.364208,-2.560568 0.162376,-5.192205 0.14,-7.77 -0.466794,-2.17159 -0.528709,-4.744425 0.85,-6.61 1.225851,-1.604903 3.401975,-2.096476 5.276742,-1.499502 2.936402,0.788745 4.55155,3.55819 6.358881,5.753036 1.921713,2.07593 4.027119,4.143765 6.810763,4.969626 1.876329,0.739663 4.619353,1.079695 5.903614,-0.82316 1.075697,-1.125971 -0.905534,-2.64689 0.513854,-3.56598 1.19206,-0.946405 2.202854,-2.140193 2.366146,-3.71402 0.490625,-3.181517 -1.337956,-6.371048 -3.77,-8.28 -1.316395,0.81159 -2.574217,2.123649 -4.27,2.01 -1.782559,0.251973 -3.520475,-0.15495 -5.11,-0.94 -2.533861,-0.895219 -5.21797,-1.754457 -7.923261,-1.033493 -2.083863,0.343746 -3.998882,1.237683 -5.716739,2.443493 -1.014104,0.223709 -1.403941,1.752245 -2.64,1.31 -1.002298,-2.036061 -0.678027,-4.475924 -1.13,-6.67 -0.166546,-2.058155 0.07321,-4.094033 0.28,-6.13 -0.08353,-1.39991 0.620517,-2.843381 0.38,-4.19 -1.253796,-2.513155 -2.874544,-5.114375 -5.59,-6.2400002 -2.401175,-1.177579 -5.324252,-0.231325 -6.94,1.8000002 -0.991786,1.36169 -2.76022,1.569309 -4.29,1.17 -2.183029,-0.19005 -3.130636,2.503431 -2.5,4.25 0.02892,1.757945 0.637595,4.2957 2.82,4.29 2.287686,0.06588 4.64594,0.190233 6.803793,1.014058 1.750065,0.72909 3.324408,1.859526 4.616207,3.225942 1.342523,1.806827 2.898023,3.626935 3.31,5.9 -0.431128,0.917425 -1.835152,0.280363 -2.442307,-0.26291 -2.839914,-2.159838 -6.566864,-2.653836 -10.043471,-2.46709 -1.561687,0.0054 -3.094605,-0.320587 -4.644222,-0.48 -2.05163,-0.648424 -4.454896,-2.23743 -6.5129436,-0.798038 -2.2216919,1.123005 -3.1157673,3.652759 -3.5426308,5.953027 -0.5449976,2.928878 0.1778794,6.10469 1.745574,8.625011 0.9398196,1.139746 2.0954567,2.439136 3.67,2.62 2.7013234,0.0069 4.0039534,-2.695873 5.5448254,-4.472858 1.571958,-1.921865 3.667253,-3.279231 5.606545,-4.775162 2.271238,-1.115084 4.765313,-2.906729 7.39863,-1.85198 2.651738,1.255967 2.692187,4.735357 2.05,7.19 -0.958625,2.423001 -2.142811,4.806875 -2.809041,7.331506 -0.734344,2.967358 -0.369736,6.055407 0.279041,8.998494 0.541716,2.385678 0.77996,4.902781 1.85,7.12 l 0.119625,0.139563 z m 6.75,-36.19 c 0.898927,-0.220935 1.527982,-1.455777 2.48,-1.86 1.718274,-1.542433 3.771618,-2.656727 5.91,-3.5 3.224308,-1.095702 6.804137,-1.511763 9.56,-3.67 1.681635,-1.306151 1.157311,-3.613738 1.132843,-5.443012 -0.01201,-2.39811 -3.122426,-2.616534 -3.772843,-4.7069882 -0.816397,-1.9727225 -0.755764,-4.5788748 -2.86,-5.7700004 -2.795134,-1.8349617 -6.647685,-0.7466322 -8.72,1.69 -2.067113,2.0069753 -3.152872,4.7870394 -3.986907,7.4947846 -0.280685,1.477194 -0.993311,2.951704 -0.933093,4.445216 1.082946,2.695926 1.580448,5.601219 1.4,8.505778 0.07335,0.954068 -0.09765,1.876668 -0.21,2.814222 z m -1.97,0 c 0.430921,-0.174129 0.508848,-1.480391 0.57,-2.13 -0.06666,-1.690231 0.313651,-3.569816 -0.47,-5.11 -0.29844,2.313919 -0.126722,4.860845 -0.1,7.24 z"
     id="path1" />
</svg>
