<svg width="109" height="102" viewBox="0 0 109 102" fill="none" xmlns="http://www.w3.org/2000/svg">
  <!-- Periwinkle Iris - Based on original iris.svg -->
  <g transform="matrix(0.1,0,0,-0.1,-7.07,108.7)">
    <path
      d="m 682,1053 c -36,-20 -76,-53 -91,-73 l -27,-37 -28,23 c -15,13 -36,24 -48,24 -11,0 -38,10 -59,22 -32,18 -43,20 -63,10 -15,-7 -28,-23 -32,-39 -3,-15 -14,-49 -25,-75 -10,-26 -19,-53 -19,-60 0,-7 -23,-25 -50,-40 -53,-29 -61,-49 -39,-91 9,-17 9,-22 -2,-25 -8,-3 -33,-24 -55,-47 C 78,577 52,473 85,410 c 9,-17 17,-30 20,-30 2,0 24,11 49,24 44,23 47,24 102,10 57,-15 107,-8 143,20 12,9 13,7 7,-9 -5,-11 -10,-38 -13,-61 -6,-49 25,-129 53,-138 11,-3 31,-25 46,-48 15,-24 44,-60 66,-81 34,-33 42,-37 64,-28 30,11 60,51 87,114 11,25 28,50 39,56 28,15 52,56 60,104 l 7,41 65,1 c 58,0 72,4 128,39 63,40 63,40 93,22 43,-25 59,-15 59,37 0,85 -87,206 -161,222 -35,8 -36,21 -7,87 16,38 19,56 12,76 -11,32 -83,72 -131,72 -27,0 -33,4 -33,22 0,12 -7,29 -16,39 -9,10 -23,33 -32,51 -10,18 -24,34 -32,35 -8,1 -44,-14 -78,-34 z m 100,-10 c 7,-16 20,-38 29,-51 11,-14 15,-33 12,-53 -2,-17 3,-48 11,-70 20,-50 20,-102 0,-145 -27,-57 -40,-61 -74,-24 -23,25 -36,31 -56,27 l -27,-5 7,71 c 3,39 9,82 11,96 5,25 5,25 -5,3 -5,-13 -14,-60 -18,-105 -5,-45 -25,-103 -29,-114 -6,-15 10,-2 30,20 31,32 38,33 68,7 l 24,-19 -27,-1 c -14,0 -40,-11 -56,-25 -34,-29 -44,-31 -36,-10 4,8 2,21 -3,28 -17,22 -15,78 2,97 9,10 15,27 13,37 -4,23 -56,29 -83,9 -19,-14 -19,-16 -4,-43 9,-15 19,-44 23,-63 l 6,-35 -21,33 c -12,17 -25,32 -30,32 -4,0 -13,9 -19,20 -19,35 -1,104 45,175 34,53 55,74 101,100 73,42 91,43 106,8 z M 479,980 c 11,0 32,-10 46,-23 l 26,-22 -20,-45 c -11,-25 -21,-62 -21,-82 0,-46 -8,-68 -26,-68 -18,0 -49,-49 -38,-60 5,-5 27,-10 48,-12 22,-2 41,-9 44,-16 2,-8 -2,-10 -12,-6 -12,5 -8,-7 13,-42 36,-60 50,-100 30,-88 -53,30 -158,106 -176,125 -12,13 -35,55 -52,92 -34,75 -39,136 -16,177 8,14 14,35 15,48 0,12 9,31 20,42 l 20,20 40,-20 c 21,-11 48,-20 59,-20 z m 473,-76 c 46,-24 53,-49 29,-104 -12,-27 -21,-56 -21,-64 0,-11 -9,-16 -29,-16 -16,0 -42,-5 -57,-10 -15,-6 -28,-9 -30,-7 -2,1 3,22 12,45 14,42 12,71 -8,124 -17,45 -4,61 39,53 21,-4 50,-13 65,-21 z M 645,809 c 4,-5 0,-18 -9,-28 -11,-12 -16,-38 -17,-82 l -1,-64 -9,59 c -5,32 -15,69 -24,82 -13,21 -13,24 3,33 22,14 49,14 57,0 z M 313,767 c 9,-23 17,-45 17,-48 0,-2 -25,-5 -56,-6 -48,-1 -56,1 -63,20 -11,29 -4,45 28,62 42,23 55,18 74,-28 z m 225,-62 c 16,-13 33,-21 37,-17 5,4 5,1 1,-6 -4,-7 0,-24 8,-37 22,-34 16,-31 -28,11 -31,30 -42,35 -67,30 -31,-6 -39,10 -17,32 18,18 33,15 66,-13 z m 443,-6 c 79,-27 152,-114 165,-196 8,-55 -1,-69 -32,-49 -34,23 -52,20 -117,-20 -87,-54 -180,-51 -192,6 -4,16 -20,41 -37,55 l -30,25 49,22 c 26,12 80,25 118,29 l 70,8 -76,-3 c -56,-2 -90,-9 -132,-29 l -58,-26 34,42 c 19,23 42,57 53,74 16,29 43,47 94,66 25,9 55,8 91,-4 z M 355,671 c 8,-16 36,-46 62,-67 27,-21 53,-42 58,-47 6,-4 -15,3 -45,17 -60,28 -125,33 -181,15 -54,-18 -57,-29 -4,-13 71,21 113,17 181,-15 65,-31 87,-51 57,-51 -10,-1 -31,-7 -48,-15 -24,-12 -25,-14 -5,-8 38,9 11,-18 -46,-46 -38,-20 -54,-22 -97,-16 -90,12 -125,10 -146,-9 -28,-25 -47,-15 -55,29 -15,79 49,200 126,238 18,9 54,17 80,17 42,0 49,-3 63,-29 z m 419,-7 c 9,-3 16,-10 16,-14 0,-14 -111,-130 -124,-130 -7,0 -10,17 -8,50 3,41 9,54 34,75 30,25 53,30 82,19 z M 613,615 c 37,0 38,-1 33,-29 -3,-16 -6,-41 -6,-57 0,-40 -36,-41 -51,-1 -5,15 -19,44 -30,66 -19,36 -19,38 -2,30 10,-4 35,-8 56,-9 z m -90,-130 -28,-25 38,20 c 53,26 70,19 52,-24 -19,-45 -27,-150 -17,-211 8,-45 9,-40 9,50 2,126 19,189 53,193 14,2 31,8 37,14 20,16 77,0 104,-28 21,-22 24,-35 24,-94 0,-54 -4,-74 -21,-97 -12,-15 -27,-28 -35,-28 -8,0 -23,-23 -35,-51 -27,-66 -59,-111 -85,-119 -25,-8 -75,36 -120,106 -16,26 -38,49 -48,52 -26,6 -55,87 -47,129 13,67 79,138 129,138 15,0 13,-5 -10,-25 z"
      fill="#8B9ED6"
    />
    <path
      d="m 468,820 c 15,-33 28,-56 30,-51 3,9 -45,111 -52,111 -3,0 8,-27 22,-60 z"
      fill="#6A7CBF"
    />
  </g>
</svg>
